<?xml version="1.0" encoding="utf-8"?><svg viewBox="0 0 130 130" xmlns="http://www.w3.org/2000/svg" xmlns:xlink="http://www.w3.org/1999/xlink"><style>:root>svg{display:none}:root>svg:target{display:block}</style><svg viewBox="0 0 9 10" id="angle-right" xmlns="http://www.w3.org/2000/svg"><defs><style>.acls-1{fill:#727272;fill-rule:evenodd}</style></defs><path id="aangle_right" class="acls-1" d="M975.907 320.768l-4.338-4.66a.279.279 0 00-.428 0l-.465.5a.331.331 0 000 .46l3.658 3.93-3.658 3.931a.322.322 0 00-.093.23.325.325 0 00.093.23l.465.5a.279.279 0 00.428 0l4.338-4.661A.326.326 0 00976 321a.33.33 0 00-.093-.23zm0 0l-3.482.23a.325.325 0 00-.093-.23l-4.332-4.66a.279.279 0 00-.428 0l-.466.5a.331.331 0 000 .46l3.658 3.93-3.658 3.931a.331.331 0 00-.093.23.334.334 0 00.093.23l.466.5a.279.279 0 00.428 0l4.337-4.661a.322.322 0 00.093-.23zm0 0" transform="translate(-967 -316)"/></svg><svg viewBox="0 0 16 20" id="bag" xmlns="http://www.w3.org/2000/svg"><defs><style>.bcls-1{fill:#fe3e57;fill-rule:evenodd}</style></defs><path id="bbag" class="bcls-1" d="M968 3579.29l-1.145-12.89a.553.553 0 00-.547-.51h-2.354a3.948 3.948 0 00-7.9 0H953.7a.55.55 0 00-.547.51l-1.145 12.89v.05a2.854 2.854 0 003 2.67h10a2.854 2.854 0 003-2.67.257.257 0 000-.05zm-7.994-16.18a2.844 2.844 0 012.844 2.78h-5.688a2.844 2.844 0 012.844-2.78zm5 17.79h-10a1.763 1.763 0 01-1.9-1.53l1.1-12.37h1.847v1.68a.552.552 0 001.1 0V3567h5.692v1.68a.552.552 0 001.1 0V3567h1.855l1.1 12.37a1.765 1.765 0 01-1.9 1.53zm0 0" transform="translate(-952 -3562)"/></svg><svg viewBox="0 0 11 17" id="facebook" xmlns="http://www.w3.org/2000/svg"><path d="M9.594 9.563l.492-3.079H7.027V4.488c0-.84.426-1.66 1.797-1.66h1.39V.207S8.955 0 7.747 0c-2.516 0-4.16 1.473-4.16 4.14v2.344h-2.8v3.079h2.8V17h3.441V9.562zm0 0"/></svg><svg viewBox="0 0 15 15" id="google+" xmlns="http://www.w3.org/2000/svg"><path d="M15 7.672c0 4.144-2.977 7.094-7.379 7.094C3.406 14.766 0 11.52 0 7.5S3.406.234 7.621.234c2.055 0 3.781.72 5.113 1.903L10.66 4.039C7.945 1.54 2.898 3.414 2.898 7.5c0 2.535 2.125 4.586 4.723 4.586 3.02 0 4.152-2.059 4.328-3.129H7.621v-2.5h7.258c.07.371.121.73.121 1.215zm0 0"/></svg><svg viewBox="0 0 15 15" id="grid" xmlns="http://www.w3.org/2000/svg"><defs><style>.ecls-1{fill:#fe3e57;fill-rule:evenodd}</style></defs><path id="egrid" class="ecls-1" d="M855 613.75h3.75V610H855v3.75zm5.625 11.25h3.75v-3.75h-3.75V625zM855 625h3.75v-3.75H855V625zm0-5.625h3.75v-3.75H855v3.75zm5.625 0h3.75v-3.75h-3.75v3.75zM866.25 610v3.75H870V610h-3.75zm-5.625 3.75h3.75V610h-3.75v3.75zm5.625 5.625H870v-3.75h-3.75v3.75zm0 5.625H870v-3.75h-3.75V625z" transform="translate(-855 -610)"/></svg><svg viewBox="0 0 16 16" id="home-icon" xmlns="http://www.w3.org/2000/svg"><defs><style>.fcls-1{fill:#727272;fill-rule:evenodd}</style></defs><path id="fhome_icon" class="fcls-1" d="M893 310l-7.771 6.858a.665.665 0 00-.064.925.639.639 0 00.91.065l.286-.253v6.44a1.95 1.95 0 001.933 1.965h3.606v-5.274a1.138 1.138 0 011.128-1.146 1.138 1.138 0 011.128 1.146V326h3.544a1.95 1.95 0 001.934-1.965v-6.44l.286.253a.637.637 0 00.909-.065.663.663 0 00-.064-.925zm5.35 14.035a.65.65 0 01-.645.655h-2.256v-3.964a2.437 2.437 0 00-2.417-2.456 2.437 2.437 0 00-2.417 2.456v3.964h-2.32a.65.65 0 01-.645-.655v-7.578l5.35-4.722 5.35 4.722v7.578z" transform="translate(-885 -310)"/></svg><svg viewBox="0 0 14 16" id="linkedin" xmlns="http://www.w3.org/2000/svg"><path d="M3.133 14H.23V4.652h2.903zM1.68 3.379c-.926 0-1.68-.77-1.68-1.7a1.682 1.682 0 013.363 0c0 .93-.754 1.7-1.683 1.7zM13.996 14h-2.894V9.45c0-1.083-.024-2.473-1.512-2.473-1.508 0-1.738 1.175-1.738 2.394V14H4.953V4.652h2.781V5.93h.043c.387-.735 1.332-1.512 2.746-1.512 2.938 0 3.477 1.934 3.477 4.45V14zm0 0"/></svg><svg viewBox="0 0 20 15" id="list" xmlns="http://www.w3.org/2000/svg"><defs><style>.hcls-1{fill:#8d8d8d;fill-rule:evenodd}</style></defs><path id="hlist" class="hcls-1" d="M885.007 610h4.422v4.172h-4.422V610zm5.828 0h14.159v4.172h-14.159V610zm-5.828 5.413h4.422v4.172h-4.422v-4.172zm5.828 0h14.159v4.172h-14.159v-4.172zm-5.828 5.414h4.422V625h-4.422v-4.171zm5.828 0h14.159V625h-14.159v-4.171z" transform="translate(-885 -610)"/></svg><svg viewBox="0 0 23 20" id="love" xmlns="http://www.w3.org/2000/svg"><defs><style>.icls-1{fill:#29282d;fill-rule:evenodd}</style></defs><path id="ilove" class="icls-1" d="M1036.89 3562a5.854 5.854 0 00-4.82 2.62 9.549 9.549 0 00-.57.91 9.549 9.549 0 00-.57-.91 5.853 5.853 0 00-9.25-.66 6.77 6.77 0 00-1.68 4.56 8.269 8.269 0 002.35 5.51 52.123 52.123 0 005.89 5.42c.89.74 1.81 1.52 2.79 2.36l.03.02a.656.656 0 00.44.17.7.7 0 00.45-.17l.02-.02c.98-.84 1.91-1.62 2.8-2.36a51.927 51.927 0 005.88-5.42 8.284 8.284 0 002.36-5.51 6.819 6.819 0 00-1.68-4.56 5.906 5.906 0 00-4.44-1.96zm-3 16.44c-.77.64-1.56 1.3-2.39 2.02-.83-.72-1.62-1.38-2.39-2.02-4.68-3.92-7.77-6.51-7.77-9.92a5.468 5.468 0 011.35-3.68 4.5 4.5 0 017.14.55 7.794 7.794 0 011.03 2.01.675.675 0 001.28 0 8.145 8.145 0 011.03-2.01 4.505 4.505 0 017.15-.55 5.51 5.51 0 011.34 3.68c0 3.41-3.09 6-7.77 9.92z" transform="translate(-1020 -3562)"/></svg><svg viewBox="0 0 12 16" id="pinterest" xmlns="http://www.w3.org/2000/svg"><path d="M6.375.203C3.168.203 0 2.34 0 5.801 0 8 1.238 9.25 1.988 9.25c.309 0 .489-.863.489-1.105 0-.293-.743-.91-.743-2.122 0-2.511 1.914-4.293 4.387-4.293 2.129 0 3.703 1.211 3.703 3.434 0 1.656-.664 4.77-2.82 4.77-.777 0-1.445-.563-1.445-1.368 0-1.183.824-2.324.824-3.543 0-2.07-2.934-1.695-2.934.805 0 .524.067 1.106.301 1.586-.43 1.856-1.313 4.621-1.313 6.531 0 .594.086 1.172.141 1.766.106.117.055.105.215.047 1.574-2.156 1.52-2.578 2.23-5.403.387.73 1.38 1.125 2.168 1.125C10.508 11.48 12 8.246 12 5.332 12 2.227 9.32.203 6.375.203zm0 0"/></svg><svg id="play-btn" data-name="play btn" viewBox="0 0 130 130" xmlns="http://www.w3.org/2000/svg"><defs><style>.kcls-1,.kcls-2,.kcls-3{fill:#fe3e57}.kcls-1{opacity:.2}.kcls-2{opacity:.6}.kcls-4{fill:#fff;fill-rule:evenodd}</style></defs><circle id="kEllipse_7_copy_2" data-name="Ellipse 7 copy 2" class="kcls-1" cx="65" cy="65" r="65"/><circle id="kEllipse_7_copy" data-name="Ellipse 7 copy" class="kcls-2" cx="65" cy="65" r="55"/><circle class="kcls-3" cx="65" cy="65" r="45"/><path class="kcls-4" d="M649.816 2630.14l-11.824-7.6a2.934 2.934 0 00-1.554-.54 1.507 1.507 0 00-1.431 1.78v16.44a1.507 1.507 0 001.429 1.78 3 3 0 001.546-.54l11.83-7.6a2.056 2.056 0 000-3.72" transform="translate(-578 -2567)"/></svg><svg viewBox="0 0 19 20" id="search" xmlns="http://www.w3.org/2000/svg"><defs><style>.lcls-1{fill:#29282d;fill-rule:evenodd}</style></defs><path id="lsearch" class="lcls-1" d="M898.709 3580.22l-4.681-4.95a8.153 8.153 0 001.863-5.19 7.944 7.944 0 10-7.944 8.07 7.746 7.746 0 004.551-1.46l4.718 4.99a1.032 1.032 0 001.464.03 1.067 1.067 0 00.029-1.49zm-10.762-16.11a5.971 5.971 0 11-5.869 5.97 5.923 5.923 0 015.869-5.97zm0 0" transform="translate(-880 -3562)"/></svg><svg viewBox="0 0 14 14" id="twitter" xmlns="http://www.w3.org/2000/svg"><path d="M12.563 4.148c.007.125.007.25.007.375 0 3.793-2.886 8.16-8.164 8.16A8.113 8.113 0 010 11.399c.23.028.453.036.691.036a5.736 5.736 0 003.563-1.227 2.87 2.87 0 01-2.68-1.988c.176.023.352.043.54.043.257 0 .515-.035.757-.098a2.868 2.868 0 01-2.3-2.816v-.035c.378.214.824.347 1.296.363a2.868 2.868 0 01-.89-3.836 8.154 8.154 0 005.918 3 3.043 3.043 0 01-.07-.656A2.864 2.864 0 019.69 1.316a2.85 2.85 0 012.098.907 5.677 5.677 0 001.82-.696 2.871 2.871 0 01-1.261 1.582A5.744 5.744 0 0014 2.664a6.176 6.176 0 01-1.438 1.484zm0 0"/></svg><svg viewBox="0 0 20 20" id="user" xmlns="http://www.w3.org/2000/svg"><defs><style>.ncls-1{fill:#29282d;fill-rule:evenodd}</style></defs><path id="nuser" class="ncls-1" d="M1392.07 57.928a9.923 9.923 0 00-3.8-2.383 5.78 5.78 0 10-6.54 0A10.018 10.018 0 001375 65h1.56a8.44 8.44 0 0116.88 0h1.56a9.931 9.931 0 00-2.93-7.072zm-11.29-7.148A4.22 4.22 0 111385 55a4.222 4.222 0 01-4.22-4.22z" transform="translate(-1375 -45)"/></svg></svg>