<?xml version="1.0" encoding="utf-8"?><svg viewBox="0 0 130 130" xmlns="http://www.w3.org/2000/svg" xmlns:xlink="http://www.w3.org/1999/xlink"><style>:root>svg{display:none}:root>svg:target{display:block}</style><svg viewBox="0 0 9 10" id="angle-right" xmlns="http://www.w3.org/2000/svg"><defs><style>.acls-1{fill:#727272;fill-rule:evenodd}</style></defs><path id="aangle_right" class="acls-1" d="M975.907 320.768l-4.338-4.66a.279.279 0 00-.428 0l-.465.5a.331.331 0 000 .46l3.658 3.93-3.658 3.931a.322.322 0 00-.093.23.325.325 0 00.093.23l.465.5a.279.279 0 00.428 0l4.338-4.661A.326.326 0 00976 321a.33.33 0 00-.093-.23zm0 0l-3.482.23a.325.325 0 00-.093-.23l-4.332-4.66a.279.279 0 00-.428 0l-.466.5a.331.331 0 000 .46l3.658 3.93-3.658 3.931a.331.331 0 00-.093.23.334.334 0 00.093.23l.466.5a.279.279 0 00.428 0l4.337-4.661a.322.322 0 00.093-.23zm0 0" transform="translate(-967 -316)"/></svg><svg viewBox="0 0 10 8" id="arrow" xmlns="http://www.w3.org/2000/svg"><defs><style>.bcls-1{fill:#8d8d8d;fill-rule:evenodd}</style></defs><path id="barrow" class="bcls-1" d="M910.836 6130.62l-3.609-3.47a.574.574 0 00-.774 0l-.327.32a.511.511 0 00-.16.37.534.534 0 00.16.38l2.105 2.03h-6.689a.518.518 0 00-.54.51v.45a.543.543 0 00.54.54h6.713l-2.129 2.04a.508.508 0 000 .74l.327.32a.6.6 0 00.387.15.556.556 0 00.387-.16l3.609-3.47a.507.507 0 00.164-.37.53.53 0 00-.16-.38" transform="translate(-901 -6127)"/></svg><svg viewBox="0 0 16 20" id="bag" xmlns="http://www.w3.org/2000/svg"><defs><style>.ccls-1{fill:#fe3e57;fill-rule:evenodd}</style></defs><path id="cbag" class="ccls-1" d="M968 3579.29l-1.145-12.89a.553.553 0 00-.547-.51h-2.354a3.948 3.948 0 00-7.9 0H953.7a.55.55 0 00-.547.51l-1.145 12.89v.05a2.854 2.854 0 003 2.67h10a2.854 2.854 0 003-2.67.257.257 0 000-.05zm-7.994-16.18a2.844 2.844 0 012.844 2.78h-5.688a2.844 2.844 0 012.844-2.78zm5 17.79h-10a1.763 1.763 0 01-1.9-1.53l1.1-12.37h1.847v1.68a.552.552 0 001.1 0V3567h5.692v1.68a.552.552 0 001.1 0V3567h1.855l1.1 12.37a1.765 1.765 0 01-1.9 1.53zm0 0" transform="translate(-952 -3562)"/></svg><svg viewBox="0 0 16 16" id="calendar" xmlns="http://www.w3.org/2000/svg"><defs><style>.dcls-1{fill:#fe3e57;fill-rule:evenodd}</style></defs><path class="dcls-1" d="M14.12 1.25h-.75V0h-1.25v1.25H3.88V0H2.62v1.25h-.75A1.874 1.874 0 000 3.12v11A1.876 1.876 0 001.87 16h12.25A1.878 1.878 0 0016 14.12v-11a1.876 1.876 0 00-1.88-1.87zM1.87 2.5h.75v1.25h1.26V2.5h8.24v1.25h1.25V2.5h.75a.625.625 0 01.63.62v1.5H1.25v-1.5a.623.623 0 01.62-.62zm12.25 12.25H1.87a.625.625 0 01-.62-.63V5.87h13.5v8.25a.627.627 0 01-.63.63zM2.37 7.19h1.25v1.25H2.37V7.19zm2.5 0h1.25v1.25H4.87V7.19zm2.5 0h1.25v1.25H7.37V7.19zm2.5 0h1.25v1.25H9.87V7.19zm2.5 0h1.25v1.25h-1.25V7.19zm-10 2.5h1.25v1.25H2.37V9.69zm2.5 0h1.25v1.25H4.87V9.69zm2.5 0h1.25v1.25H7.37V9.69zm2.5 0h1.25v1.25H9.87V9.69zm-7.5 2.5h1.25v1.25H2.37v-1.25zm2.5 0h1.25v1.25H4.87v-1.25zm2.5 0h1.25v1.25H7.37v-1.25zm2.5 0h1.25v1.25H9.87v-1.25zm2.5-2.5h1.25v1.25h-1.25V9.69z"/></svg><svg viewBox="0 0 40 25" id="delivery" xmlns="http://www.w3.org/2000/svg"><defs><style>.ecls-1{fill:#fff;fill-rule:evenodd}</style></defs><path id="eicon" class="ecls-1" d="M462.2 1018.6l-1.036-4.1a.614.614 0 00.5-.6v-.66a2.621 2.621 0 00-2.631-2.6h-4.723v-1.36a1.286 1.286 0 00-1.3-1.28h-24.046a1.286 1.286 0 00-1.3 1.28v11.22a.627.627 0 001.253 0v-11.22a.037.037 0 01.042-.04h24.051a.037.037 0 01.042.04v11.22a.627.627 0 001.253 0v-.7h7.395a2.047 2.047 0 011.946 1.4H461.7a.624.624 0 00-.626.62v1.32a1.953 1.953 0 001.962 1.94h.71v2.72h-1.637a3.982 3.982 0 00-7.5 0h-.3v-4.66a.627.627 0 00-1.253 0v4.66h-13a3.981 3.981 0 00-7.5 0h-3.6a.043.043 0 01-.042-.04v-1.36h2.714a.62.62 0 100-1.24h-6.013a.62.62 0 100 1.24h2.046v1.36a1.286 1.286 0 001.3 1.28h3.383v.04a3.967 3.967 0 007.934 0v-.04h14.116v.04a3.967 3.967 0 007.934 0v-.04h2.048a.624.624 0 00.626-.62v-6.6a3.276 3.276 0 00-2.802-3.22zm-7.889-4.08h5.565l1.023 4.04h-6.589v-4.04zm4.718-2.64a1.37 1.37 0 011.378 1.36v.04h-6.1v-1.4h4.718zm-22.715 19.88a2.68 2.68 0 112.714-2.68 2.7 2.7 0 01-2.715 2.68zm22.047 0a2.68 2.68 0 112.714-2.68 2.7 2.7 0 01-2.715 2.68zm4.676-7.92a.7.7 0 01-.709-.7v-.7h1.419v1.4h-.71zm-26.723 3.96a1.28 1.28 0 101.294 1.28 1.293 1.293 0 00-1.295-1.28zm22.047 0a1.28 1.28 0 101.294 1.28 1.293 1.293 0 00-1.295-1.28zm-17.329-2.02a.625.625 0 00.626.62h9.354a.62.62 0 100-1.24h-9.354a.625.625 0 00-.627.62zm-14.072-2.02h8.018a.62.62 0 100-1.24h-8.018a.62.62 0 10-.001 1.24zm18.932-9.64l-5.57 5.5-2.9-2.86a.635.635 0 00-.886 0 .619.619 0 000 .88l3.34 3.3a.635.635 0 00.886 0l6.013-5.94a.619.619 0 000-.88.635.635 0 00-.884 0z" transform="translate(-425 -1008)"/></svg><svg viewBox="0 0 11 17" id="facebook" xmlns="http://www.w3.org/2000/svg"><path d="M9.594 9.563l.492-3.079H7.027V4.488c0-.84.426-1.66 1.797-1.66h1.39V.207S8.955 0 7.747 0c-2.516 0-4.16 1.473-4.16 4.14v2.344h-2.8v3.079h2.8V17h3.441V9.562zm0 0"/></svg><svg viewBox="0 0 15 15" id="google+" xmlns="http://www.w3.org/2000/svg"><path d="M15 7.672c0 4.144-2.977 7.094-7.379 7.094C3.406 14.766 0 11.52 0 7.5S3.406.234 7.621.234c2.055 0 3.781.72 5.113 1.903L10.66 4.039C7.945 1.54 2.898 3.414 2.898 7.5c0 2.535 2.125 4.586 4.723 4.586 3.02 0 4.152-2.059 4.328-3.129H7.621v-2.5h7.258c.07.371.121.73.121 1.215zm0 0"/></svg><svg viewBox="0 0 15 15" id="grid" xmlns="http://www.w3.org/2000/svg"><defs><style>.hcls-1{fill:#fe3e57;fill-rule:evenodd}</style></defs><path id="hgrid" class="hcls-1" d="M855 613.75h3.75V610H855v3.75zm5.625 11.25h3.75v-3.75h-3.75V625zM855 625h3.75v-3.75H855V625zm0-5.625h3.75v-3.75H855v3.75zm5.625 0h3.75v-3.75h-3.75v3.75zM866.25 610v3.75H870V610h-3.75zm-5.625 3.75h3.75V610h-3.75v3.75zm5.625 5.625H870v-3.75h-3.75v3.75zm0 5.625H870v-3.75h-3.75V625z" transform="translate(-855 -610)"/></svg><svg viewBox="0 0 16 16" id="home-icon" xmlns="http://www.w3.org/2000/svg"><defs><style>.icls-1{fill:#727272;fill-rule:evenodd}</style></defs><path id="ihome_icon" class="icls-1" d="M893 310l-7.771 6.858a.665.665 0 00-.064.925.639.639 0 00.91.065l.286-.253v6.44a1.95 1.95 0 001.933 1.965h3.606v-5.274a1.138 1.138 0 011.128-1.146 1.138 1.138 0 011.128 1.146V326h3.544a1.95 1.95 0 001.934-1.965v-6.44l.286.253a.637.637 0 00.909-.065.663.663 0 00-.064-.925zm5.35 14.035a.65.65 0 01-.645.655h-2.256v-3.964a2.437 2.437 0 00-2.417-2.456 2.437 2.437 0 00-2.417 2.456v3.964h-2.32a.65.65 0 01-.645-.655v-7.578l5.35-4.722 5.35 4.722v7.578z" transform="translate(-885 -310)"/></svg><svg viewBox="0 0 14 16" id="linkedin" xmlns="http://www.w3.org/2000/svg"><path d="M3.133 14H.23V4.652h2.903zM1.68 3.379c-.926 0-1.68-.77-1.68-1.7a1.682 1.682 0 013.363 0c0 .93-.754 1.7-1.683 1.7zM13.996 14h-2.894V9.45c0-1.083-.024-2.473-1.512-2.473-1.508 0-1.738 1.175-1.738 2.394V14H4.953V4.652h2.781V5.93h.043c.387-.735 1.332-1.512 2.746-1.512 2.938 0 3.477 1.934 3.477 4.45V14zm0 0"/></svg><svg viewBox="0 0 20 15" id="list" xmlns="http://www.w3.org/2000/svg"><defs><style>.kcls-1{fill:#8d8d8d;fill-rule:evenodd}</style></defs><path id="klist" class="kcls-1" d="M885.007 610h4.422v4.172h-4.422V610zm5.828 0h14.159v4.172h-14.159V610zm-5.828 5.413h4.422v4.172h-4.422v-4.172zm5.828 0h14.159v4.172h-14.159v-4.172zm-5.828 5.414h4.422V625h-4.422v-4.171zm5.828 0h14.159V625h-14.159v-4.171z" transform="translate(-885 -610)"/></svg><svg viewBox="0 0 23 20" id="love" xmlns="http://www.w3.org/2000/svg"><defs><style>.lcls-1{fill:#29282d;fill-rule:evenodd}</style></defs><path id="llove" class="lcls-1" d="M1036.89 3562a5.854 5.854 0 00-4.82 2.62 9.549 9.549 0 00-.57.91 9.549 9.549 0 00-.57-.91 5.853 5.853 0 00-9.25-.66 6.77 6.77 0 00-1.68 4.56 8.269 8.269 0 002.35 5.51 52.123 52.123 0 005.89 5.42c.89.74 1.81 1.52 2.79 2.36l.03.02a.656.656 0 00.44.17.7.7 0 00.45-.17l.02-.02c.98-.84 1.91-1.62 2.8-2.36a51.927 51.927 0 005.88-5.42 8.284 8.284 0 002.36-5.51 6.819 6.819 0 00-1.68-4.56 5.906 5.906 0 00-4.44-1.96zm-3 16.44c-.77.64-1.56 1.3-2.39 2.02-.83-.72-1.62-1.38-2.39-2.02-4.68-3.92-7.77-6.51-7.77-9.92a5.468 5.468 0 011.35-3.68 4.5 4.5 0 017.14.55 7.794 7.794 0 011.03 2.01.675.675 0 001.28 0 8.145 8.145 0 011.03-2.01 4.505 4.505 0 017.15-.55 5.51 5.51 0 011.34 3.68c0 3.41-3.09 6-7.77 9.92z" transform="translate(-1020 -3562)"/></svg><svg viewBox="0 0 12 16" id="pinterest" xmlns="http://www.w3.org/2000/svg"><path d="M6.375.203C3.168.203 0 2.34 0 5.801 0 8 1.238 9.25 1.988 9.25c.309 0 .489-.863.489-1.105 0-.293-.743-.91-.743-2.122 0-2.511 1.914-4.293 4.387-4.293 2.129 0 3.703 1.211 3.703 3.434 0 1.656-.664 4.77-2.82 4.77-.777 0-1.445-.563-1.445-1.368 0-1.183.824-2.324.824-3.543 0-2.07-2.934-1.695-2.934.805 0 .524.067 1.106.301 1.586-.43 1.856-1.313 4.621-1.313 6.531 0 .594.086 1.172.141 1.766.106.117.055.105.215.047 1.574-2.156 1.52-2.578 2.23-5.403.387.73 1.38 1.125 2.168 1.125C10.508 11.48 12 8.246 12 5.332 12 2.227 9.32.203 6.375.203zm0 0"/></svg><svg id="play-btn" data-name="play btn" viewBox="0 0 130 130" xmlns="http://www.w3.org/2000/svg"><defs><style>.ncls-1,.ncls-2,.ncls-3{fill:#fe3e57}.ncls-1{opacity:.2}.ncls-2{opacity:.6}.ncls-4{fill:#fff;fill-rule:evenodd}</style></defs><circle id="nEllipse_7_copy_2" data-name="Ellipse 7 copy 2" class="ncls-1" cx="65" cy="65" r="65"/><circle id="nEllipse_7_copy" data-name="Ellipse 7 copy" class="ncls-2" cx="65" cy="65" r="55"/><circle class="ncls-3" cx="65" cy="65" r="45"/><path class="ncls-4" d="M649.816 2630.14l-11.824-7.6a2.934 2.934 0 00-1.554-.54 1.507 1.507 0 00-1.431 1.78v16.44a1.507 1.507 0 001.429 1.78 3 3 0 001.546-.54l11.83-7.6a2.056 2.056 0 000-3.72" transform="translate(-578 -2567)"/></svg><svg viewBox="0 0 23 25" id="return" xmlns="http://www.w3.org/2000/svg"><defs><style>.ocls-1{fill:#fff;fill-rule:evenodd}</style></defs><path id="oIcon" class="ocls-1" d="M857 1010.44l-1.451-.11-.121 1.69a12.253 12.253 0 00-9.07-4.02 12.5 12.5 0 000 25 12.3 12.3 0 0010.265-5.55l-1.207-.82a10.863 10.863 0 01-9.058 4.9 11.031 11.031 0 010-22.06 10.806 10.806 0 018.057 3.61l-1.851-.14-.106 1.47 4.234.31zm-18.933 10.34a2.429 2.429 0 00.947.24c.356 0 .608-.11.608-.37a.539.539 0 00-.624-.41h-.46v-.73h.443a.477.477 0 00.554-.31c0-.17-.176-.29-.51-.29a2.022 2.022 0 00-.86.23l-.219-.74a2.666 2.666 0 011.309-.3 1.116 1.116 0 011.332.93.866.866 0 01-.7.84v.01a.87.87 0 01.816.84c0 .7-.657 1.11-1.611 1.11a2.514 2.514 0 01-1.243-.28zm4.617 1.05a1.538 1.538 0 11.006 0h-.006zm.011-.75c.28 0 .466-.35.466-1.11s-.186-1.11-.471-1.11-.471.34-.471 1.11.186 1.11.471 1.11zm3.183-3a9.807 9.807 0 011.3-.08 2.885 2.885 0 011.66.38 1.569 1.569 0 01.734 1.41 1.788 1.788 0 01-.679 1.52 3.173 3.173 0 01-1.917.5 7.786 7.786 0 01-1.1-.06v-3.67zm1.035 2.92a1.826 1.826 0 00.241.01 1.124 1.124 0 001.31-1.16 1.03 1.03 0 00-1.189-1.06 1.909 1.909 0 00-.362.03v2.18zm5.725.09a3.849 3.849 0 00.044.68h-.932l-.055-.23h-.021a1.012 1.012 0 01-.789.29.875.875 0 01-.943-.85c0-.74.647-1.07 1.666-1.07v-.02c0-.1-.066-.22-.471-.22a1.861 1.861 0 00-.817.21l-.18-.65a2.564 2.564 0 011.177-.26 1.134 1.134 0 011.321 1.21v.91zm-1-.55c-.455 0-.674.11-.674.34a.247.247 0 00.3.24.4.4 0 00.367-.28.689.689 0 00.011-.15v-.15zm2.443-1.5l.356 1.18c.044.16.1.38.137.51h.026c.038-.14.082-.36.115-.51l.268-1.18h1.129l-.57 1.56a4.369 4.369 0 01-1.09 2.02 1.683 1.683 0 01-.97.38l-.192-.88a1.2 1.2 0 00.335-.07.955.955 0 00.35-.25.223.223 0 00.055-.13.406.406 0 00-.044-.16l-1.057-2.47h1.156z" transform="translate(-834 -1008)"/></svg><svg viewBox="0 0 19 20" id="search" xmlns="http://www.w3.org/2000/svg"><defs><style>.pcls-1{fill:#29282d;fill-rule:evenodd}</style></defs><path id="psearch" class="pcls-1" d="M898.709 3580.22l-4.681-4.95a8.153 8.153 0 001.863-5.19 7.944 7.944 0 10-7.944 8.07 7.746 7.746 0 004.551-1.46l4.718 4.99a1.032 1.032 0 001.464.03 1.067 1.067 0 00.029-1.49zm-10.762-16.11a5.971 5.971 0 11-5.869 5.97 5.923 5.923 0 015.869-5.97zm0 0" transform="translate(-880 -3562)"/></svg><svg viewBox="0 0 26 25" id="support" xmlns="http://www.w3.org/2000/svg"><defs><style>.qcls-1{fill:#fff;fill-rule:evenodd}</style></defs><path id="qIcon" class="qcls-1" d="M1257.38 1019.68a2.391 2.391 0 00-1.45-.6 2.114 2.114 0 00-1.6.6l-2.89 2.79a1.309 1.309 0 00-.19-.27 1.885 1.885 0 00-1.47-.64h-4.04a8.421 8.421 0 01-2.21-.29 5.543 5.543 0 00-5.08 1.05 6.581 6.581 0 00-1.32 1.39l-.73-.69a.506.506 0 00-.36-.14.514.514 0 00-.37.15l-3.52 3.57a.508.508 0 00-.15.36.52.52 0 00.16.35l5.97 5.55a.518.518 0 00.35.14.53.53 0 00.37-.15l3.49-3.5a.554.554 0 00.15-.36.5.5 0 00-.16-.35l-.3-.29.69-.08a10.862 10.862 0 011.28-.07h6.15a4.75 4.75 0 002.53-.64.01.01 0 00.01-.01 3.055 3.055 0 00.66-.58l4.14-4.76a1.711 1.711 0 00-.11-2.53zm-18.91 12.12l-5.23-4.86 2.81-2.86 5.2 4.93zm18.25-10.24l-4.15 4.77a2.861 2.861 0 01-.45.4 3.755 3.755 0 01-1.97.47h-6.16a12.623 12.623 0 00-1.38.08l-1.54.17-3.2-3.04a6.478 6.478 0 011.22-1.32 4.508 4.508 0 014.16-.86 9.348 9.348 0 002.49.33h4.04a.9.9 0 01.92.97 1.091 1.091 0 01-.23.7.883.883 0 01-.7.28h-3.52a.512.512 0 00-.52.5.506.506 0 00.52.5h3.52a1.9 1.9 0 001.47-.64 2.04 2.04 0 00.49-1.27l3.33-3.22a1.222 1.222 0 011.63.03.742.742 0 01.03 1.15zm0 0l-12.07 3.32a.5.5 0 00-.61-.37.489.489 0 00-.38.6v.02a.513.513 0 00.5.38.375.375 0 00.11-.01.5.5 0 00.39-.6zm0 0l-9.19-6.35h4.98a1.242 1.242 0 00.73-.23 1.2 1.2 0 00.73.23h4.98a1.242 1.242 0 00.73-.23 1.19 1.19 0 00.72.23h4.98a1.221 1.221 0 001.24-1.21v-2.26a2.619 2.619 0 00-1.46-2.35 2.756 2.756 0 00.68-1.83 2.951 2.951 0 00-5.9 0 2.808 2.808 0 00.68 1.83 2.61 2.61 0 00-.94.8 2.73 2.73 0 00-.95-.8 2.808 2.808 0 00.68-1.83 2.951 2.951 0 00-5.9 0 2.756 2.756 0 00.68 1.83 2.643 2.643 0 00-.95.8 1.4 1.4 0 01-.27-2.63 2.951 2.951 0 00-5.9 0 2.808 2.808 0 00.68 1.83 2.637 2.637 0 00-1.46 2.35v2.26a1.227 1.227 0 001.24 1.21zm15.36-9.53a1.88 1.88 0 11-1.92 1.88 1.9 1.9 0 011.92-1.88zm-1.33 4.45a2.99 2.99 0 001.33.31 2.958 2.958 0 001.33-.31 1.624 1.624 0 011.38 1.61v2.26a.214.214 0 01-.22.21h-4.98a.205.205 0 01-.21-.21v-2.26a1.625 1.625 0 011.37-1.61zm-5.1-4.45a1.881 1.881 0 11-1.93 1.88 1.9 1.9 0 011.93-1.88zm-1.33 4.45a2.958 2.958 0 001.33.31 2.99 2.99 0 001.33-.31 1.625 1.625 0 011.37 1.61v2.26a.205.205 0 01-.21.21h-4.98a.214.214 0 01-.22-.21v-2.26a1.624 1.624 0 011.38-1.61zm-5.11-4.45a1.881 1.881 0 11-1.93 1.88 1.908 1.908 0 011.93-1.88zm-2.71 6.06a1.633 1.633 0 011.38-1.61 3.008 3.008 0 002.66 0 1.633 1.633 0 011.38 1.61v2.26a.214.214 0 01-.22.21h-4.98a.214.214 0 01-.22-.21v-2.26zm0 0" transform="translate(-1232 -1008)"/></svg><svg viewBox="0 0 14 14" id="twitter" xmlns="http://www.w3.org/2000/svg"><path d="M12.563 4.148c.007.125.007.25.007.375 0 3.793-2.886 8.16-8.164 8.16A8.113 8.113 0 010 11.399c.23.028.453.036.691.036a5.736 5.736 0 003.563-1.227 2.87 2.87 0 01-2.68-1.988c.176.023.352.043.54.043.257 0 .515-.035.757-.098a2.868 2.868 0 01-2.3-2.816v-.035c.378.214.824.347 1.296.363a2.868 2.868 0 01-.89-3.836 8.154 8.154 0 005.918 3 3.043 3.043 0 01-.07-.656A2.864 2.864 0 019.69 1.316a2.85 2.85 0 012.098.907 5.677 5.677 0 001.82-.696 2.871 2.871 0 01-1.261 1.582A5.744 5.744 0 0014 2.664a6.176 6.176 0 01-1.438 1.484zm0 0"/></svg><svg viewBox="0 0 20 20" id="user" xmlns="http://www.w3.org/2000/svg"><defs><style>.scls-1{fill:#29282d;fill-rule:evenodd}</style></defs><path id="suser" class="scls-1" d="M1392.07 57.928a9.923 9.923 0 00-3.8-2.383 5.78 5.78 0 10-6.54 0A10.018 10.018 0 001375 65h1.56a8.44 8.44 0 0116.88 0h1.56a9.931 9.931 0 00-2.93-7.072zm-11.29-7.148A4.22 4.22 0 111385 55a4.222 4.222 0 01-4.22-4.22z" transform="translate(-1375 -45)"/></svg></svg>